# AST/ASF file generated using VICON BodyLanguage
# -----------------------------------------------
:version 1.10
:name VICON
:units
  mass 1.0
  length 0.45
  angle deg
:documentation
   .ast/.asf automatically generated from VICON data using
   VICON BodyBuilder and BodyLanguage model FoxedUp or BRILLIANT.MOD
:root
   order TX TY TZ RX RY RZ
   axis XYZ
   position 0 0 0  
   orientation 0 0 0 
:bonedata
  begin
     id 1 
     name lhipjoint
     direction 0.700308 -0.549349 0.455834 
     length 2.59063 
     axis 0 0 0  XYZ
  end
  begin
     id 2 
     name lfemur
     direction 0.34202 -0.939693 0  
     length 6.31066  
     axis 0 0 20  XYZ
    dof rx ry rz
    limits (-160.0 20.0)
           (-70.0 70.0)
           (-60.0 70.0)
  end
  begin
     id 3 
     name ltibia
     direction 0.34202 -0.939693 0   
     length 7.36093   
     axis 0 0 20   XYZ
    dof rx
    limits (-10.0 170.0)
  end
  begin
     id 4 
     name lfoot
     direction 0.0905332 -0.248738 0.96433   
     length 2.0233   
     axis -90 7.62852e-016 20   XYZ
    dof rx rz
    limits (-45.0 90.0)
           (-70.0 20.0)
  end
  begin
     id 5 
     name ltoes
     direction 1.53573e-011 -4.21855e-011 1   
     length 1.01524   
     axis -90 7.62852e-016 20   XYZ
    dof rx
    limits (-90.0 20.0)
  end
  begin
     id 6 
     name rhipjoint
     direction -0.61416 -0.607328 0.503944   
     length 2.34332  
     axis 0 0 0  XYZ 
  end
  begin
     id 7 
     name rfemur
     direction -0.34202 -0.939693 0   
     length 6.58548   
     axis 0 0 -20   XYZ
    dof rx ry rz
    limits (-160.0 20.0)
           (-70.0 70.0)
           (-70.0 60.0)
  end
  begin
     id 8 
     name rtibia
     direction -0.34202 -0.939693 0   
     length 7.20707   
     axis 0 0 -20   XYZ
    dof rx
    limits (-10.0 170.0)
 end
 begin
     id 9 
     name rfoot
     direction -0.136772 -0.375778 0.916561   
     length 1.92184  
     axis -90 -7.62852e-016 -20   XYZ
    dof rx rz
    limits (-45.0 90.0)
           (-20.0 70.0)
  end
  begin
     id 10 
     name rtoes
     direction -1.53535e-011 -4.21828e-011 1   
     length 0.951089   
     axis -90 -7.62852e-016 -20   XYZ
    dof rx
    limits (-90.0 20.0)
  end
  begin
     id 11 
     name lowerback
     direction -0.0444974 0.988086 -0.147332   
     length 1.9609   
     axis 0 0 0   XYZ
    dof rx ry rz
    limits (-20.0 45.0)
           (-30.0 30.0)
           (-30.0 30.0)
  end
  begin
     id 12 
     name upperback
     direction 0.00613146 0.999513 0.0306081   
     length 1.94944   
     axis 0 0 0   XYZ
    dof rx ry rz
    limits (-20.0 45.0)
           (-30.0 30.0)
           (-30.0 30.0)
  end
  begin
     id 13 
     name thorax
     direction 0.0254621 0.994518 0.101418   
     length 2.0119   
     axis 0 0 0   XYZ
    dof rx ry rz
    limits (-20.0 45.0)
           (-30.0 30.0)
           (-30.0 30.0)
  end
  begin
     id 14 
     name lowerneck
     direction 0.0168698 0.977854 0.208608   
     length 1.6375   
     axis 0 0 0   XYZ
    dof rx ry rz
    limits (-20.0 45.0)
           (-30.0 30.0)
           (-30.0 30.0)
  end
  begin
     id 15 
     name upperneck
     direction -0.0283988 0.989338 -0.142843   
     length 1.6851   
     axis 0 0 0   XYZ
    dof rx ry rz
    limits (-20.0 45.0)
           (-30.0 30.0)
           (-30.0 30.0)
  end
  begin
     id 16
     name head
     direction -0.0129422 0.99741 -0.0707489  
     length 1.69029  
     axis 0 0 0   XYZ
    dof rx ry rz
    limits (-20.0 45.0)
           (-30.0 30.0)
           (-30.0 30.0)
  end
  begin
     id 17 
     name lclavicle
     direction 0.820295 0.564628 -0.0911715  
     length 3.16484  
     axis 0 0 0   XYZ
    dof ry rz
    limits (-20.0 10.0)
           (0.0 20.0)
  end
  begin
     id 18 
     name lhumerus
     direction 1 -4.48969e-011 1.00186e-027   
     length 5.17853   
     axis 180 -30 -90   XYZ
    dof rx ry rz
    limits (-60.0 90.0)
           (-90.0 90.0)
           (-90.0 90.0)
  end
  begin
     id 19
     name lradius
     direction 1 -4.48966e-011 -1.52922e-027   
     length 3.40399   
     axis 180 -30 -90   XYZ
    dof rx
    limits (-10.0 170.0)
  end
  begin
     id 20
     name lwrist
     direction 1 -4.48981e-011 -3.80893e-027   
     length 1.70199   
     axis 1.1049e-015 90 90   XYZ
    dof ry
    limits (-180.0 0.0)
 end
  begin
     id 21 
     name lhand
     direction 1 -4.48957e-011 -7.61786e-027   
     length 0.708964   
     axis 4.86085e-015 90 90   XYZ
    dof rx rz
    limits (-90.0 90.0)
           (-45.0 45.0)
  end
  begin
     id 22 
     name lfingers
     direction 1 -4.48929e-011 -1.52357e-026   
     length 0.571585   
     axis 9.7217e-015 90 90   XYZ
    dof rx
    limits (0.0 90.0)
  end
  begin
     id 23
     name lthumb
     direction 0.707107 -6.34905e-011 0.707107   
     length 0.820685   
     axis -90 45 2.85299e-015   XYZ
    dof rx rz
    limits (-45.0 45.0)
           (-45.0 45.0)
  end
  begin
     id 24 
     name rclavicle
     direction -0.858602 0.463947 -0.218075   
     length 3.35137  
     axis 0 0 0   XYZ 
    dof ry rz
    limits (-10.0 20.0)
           (-20.0 0.0)
  end
  begin
     id 25 
     name rhumerus
     direction -1 -4.48969e-011 -1.98511e-027  
     length 5.42351   
     axis 180 30 90   XYZ
    dof rx ry rz
    limits (-90.0 60.0)
           (-90.0 90.0)
           (-90.0 90.0)
  end
  begin
     id 26 
     name rradius
     direction -1 -4.48961e-011 -2.82624e-027   
     length 3.42066   
     axis 180 30 90   XYZ
    dof rx
    limits (-10.0 170.0)
  end
  begin
     id 27 
     name rwrist
     direction -1 -4.48966e-011 -3.80893e-027   
     length 1.71033   
     axis 1.1049e-015 -90 -90   XYZ
    dof ry
    limits (-180.0 0.0)
  end
  begin
     id 28
     name rhand
     direction -1 -4.48964e-011 -7.61786e-027   
     length 0.743608   
     axis 4.86085e-015 -90 -90   XYZ
    dof rx rz
    limits (-90.0 90.0)
           (-45.0 45.0)
  end
  begin
     id 29
     name rfingers
     direction -1 -4.48961e-011 -1.52357e-026   
     length 0.599516   
     axis 9.7217e-015 -90 -90   XYZ
    dof rx
    limits (0.0 90.0)
  end
  begin
     id 30
     name rthumb
     direction -0.707107 -6.34913e-011 0.707107   
     length 0.860789   
     axis -90 -45 -2.85299e-015   XYZ
    dof rx rz
    limits (-45.0 45.0)
           (-45.0 45.0)
  end
:hierarchy
  begin
    root lhipjoint rhipjoint lowerback
    lhipjoint lfemur
    lfemur ltibia
    ltibia lfoot
    lfoot ltoes
    rhipjoint rfemur
    rfemur rtibia
    rtibia rfoot
    rfoot rtoes
    lowerback upperback
    upperback thorax
    thorax lowerneck lclavicle rclavicle
    lowerneck upperneck
    upperneck head
    lclavicle lhumerus
    lhumerus lradius
    lradius lwrist
    lwrist lhand lthumb
    lhand lfingers
    rclavicle rhumerus
    rhumerus rradius
    rradius rwrist
    rwrist rhand rthumb
    rhand rfingers
  end

#!OML:ASF E:\mmandel\Project 1\Capture day 1\Session 2\Subject.ASF
:FULLY-SPECIFIED
:DEGREES
1
root 23.7064 2.41414 -1.38391 30.3827 73.1968 -66.3547
lowerback -4.19864 4.72061 -12.3796
upperback -0.515959 6.91163 3.29954
thorax -0.0669472 3.5474 10.6582
lowerneck -22.5276 1.72548 3.35194
upperneck -6.05149 2.21054 -10.5052
head 1.85768 0.929396 -3.63361
rclavicle 9.64106e-015 -2.62365e-014
rhumerus -161.296 -40.3427 99.0351
rradius 16.2855
rwrist -154.038
rhand -15.8886 34.9788
rfingers 7.12502
rthumb 10.3076 5.25136
lclavicle 9.64106e-015 -2.62365e-014
lhumerus -113.261 -63.1595 179.715
lradius 31.802
lwrist 30.3022
lhand -10.5127 -31.7343
lfingers 7.12502
lthumb 15.4899 -2.33481
rfemur -49.8107 -51.6566 32.991
rtibia 74.2161
rfoot -6.16609 -10.6495
rtoes -10.5404
lfemur -4.63231 6.29764 -13.8998
ltibia 23.4639
lfoot -12.1677 -9.34637
ltoes 16.2235
2
root 23.7099 2.41398 -1.38133 30.1122 73.3104 -66.7485
lowerback -4.3276 4.70744 -12.2686
upperback -0.552012 6.90771 3.35743
thorax -0.0259226 3.54688 10.6703
lowerneck -22.7864 1.67251 3.12956
upperneck -5.58134 2.21275 -10.2697
head 2.02712 0.91478 -3.52244
rclavicle -1.14699e-013 -7.73831e-014
rhumerus -160.915 -40.9184 98.6521
rradius 16.1553
rwrist -154.772
rhand -15.8539 34.9831
rfingers 7.12502
rthumb 10.3411 5.25738
lclavicle -1.14699e-013 -7.73831e-014
lhumerus -113.814 -63.1134 180.412
lradius 31.7893
lwrist 30.5524
lhand -10.5858 -31.72
lfingers 7.12502
lthumb 15.4195 -2.31513
rfemur -49.9096 -51.6064 33.2581
rtibia 74.1451
rfoot -6.2082 -10.6823
rtoes -10.2203
lfemur -4.83433 6.24044 -13.7446
ltibia 23.616
lfoot -12.1377 -9.34375
ltoes 16.9233
3
root 23.7135 2.41334 -1.37903 29.8362 73.4333 -67.2039
lowerback -4.51265 4.69027 -12.1385
upperback -0.606148 6.90446 3.41704
thorax 0.0292511 3.54723 10.6782
lowerneck -22.4787 1.746 3.49085
upperneck -5.92955 2.21471 -10.7959
head 1.89915 0.913886 -3.74681
rclavicle -1.2434e-013 -4.36954e-014
rhumerus -160.438 -41.566 98.1942
rradius 15.8961
rwrist -155.571
rhand -15.7849 34.9118
rfingers 7.12502
rthumb 10.4076 5.18935
lclavicle -1.2434e-013 -4.36954e-014
lhumerus -115.147 -62.9764 181.976
lradius 31.8085
lwrist 31.2091
lhand -10.8296 -31.6009
lfingers 7.12502
lthumb 15.1846 -2.17809
rfemur -50.1079 -51.5641 33.6293
rtibia 74.0731
rfoot -6.16892 -10.6881
rtoes -10.2869
lfemur -5.10167 6.30891 -13.5594
ltibia 23.7954
lfoot -12.0634 -9.44915
ltoes 17.7251
4
root 23.7166 2.41254 -1.3769 29.7413 73.5322 -67.3732
lowerback -4.59031 4.70106 -12.0834
upperback -0.638921 6.92716 3.43244
thorax 0.0364936 3.56121 10.6695
lowerneck -22.5493 1.75212 3.52555
upperneck -5.72216 2.22494 -10.8227
head 1.97404 0.90569 -3.75967
rclavicle 2.41523e-014 9.4491e-014
rhumerus -159.722 -42.4188 97.5049
rradius 15.4764
rwrist -156.701
rhand -15.6559 34.8471
rfingers 7.12502
rthumb 10.5321 5.131
lclavicle 2.41523e-014 9.4491e-014
lhumerus -116.409 -62.8559 183.374
lradius 31.8586
lwrist 31.7436
lhand -11.0087 -31.4951
lfingers 7.12502
lthumb 15.0121 -2.05935
rfemur -50.1766 -51.5991 33.7993
rtibia 74.0151
rfoot -6.03284 -10.6553
rtoes -10.5439
lfemur -5.2411 6.31843 -13.4731
ltibia 23.9384
lfoot -12.2584 -9.40974
ltoes 17.2938
5
root 23.719 2.4122 -1.37471 29.7766 73.6105 -67.428
lowerback -4.66974 4.72532 -12.0814
upperback -0.71544 6.96972 3.42122
thorax -0.0101486 3.59153 10.6588
lowerneck -22.4262 1.7415 3.7521
upperneck -5.76954 2.15338 -10.9835
head 1.945 0.863948 -3.85315
rclavicle 2.20651e-014 4.61926e-014
rhumerus -158.916 -43.2391 96.7114
rradius 15.1246
rwrist -157.891
rhand -15.4806 34.8121
rfingers 7.12502
rthumb 10.7012 5.10463
lclavicle 2.20651e-014 4.61926e-014
lhumerus -119.059 -62.5181 186.28
lradius 31.9919
lwrist 32.9442
lhand -11.2243 -31.4864
lfingers 7.12502
lthumb 14.8044 -2.03519
rfemur -50.3018 -51.6278 33.9712
rtibia 73.9748
rfoot -5.91921 -10.5712
rtoes -10.6098
lfemur -5.39118 6.24179 -13.4451
ltibia 24.0428
lfoot -12.3397 -9.28042
ltoes 16.8487
6
root 23.7158 2.41295 -1.374 29.8755 73.6507 -67.3313
lowerback -4.64751 4.71043 -12.0905
upperback -0.733573 6.94639 3.40744
thorax -0.0349372 3.58222 10.6458
lowerneck -22.335 1.75518 3.80888
upperneck -5.8704 2.15116 -10.9741
head 1.90185 0.868377 -3.85965
rclavicle -2.98177e-015 6.7096e-014
rhumerus -158.427 -44.1047 96.0198
rradius 15.0028
rwrist -158.927
rhand -15.2507 34.8292
rfingers 7.12502
rthumb 10.923 5.13336
lclavicle -2.98177e-015 6.7096e-014
lhumerus -123.018 -61.9208 190.687
lradius 32.2396
lwrist 35.1169
lhand -11.6866 -31.3309
lfingers 7.12502
lthumb 14.359 -1.84751
rfemur -50.2987 -51.6528 33.9619
rtibia 73.9647
rfoot -5.85449 -10.4299
rtoes -10.6245
lfemur -5.44636 6.12544 -13.4771
ltibia 24.0988
lfoot -12.402 -9.11347
ltoes 16.1447
7
root 23.7093 2.41356 -1.37318 30.2969 73.6407 -66.8653
lowerback -4.58423 4.69955 -12.1966
upperback -0.774686 6.92593 3.35071
thorax -0.114217 3.57871 10.6349
lowerneck -22.107 1.77067 3.89293
upperneck -5.97657 2.1439 -11.0153
head 1.8398 0.870441 -3.88648
rclavicle 9.89948e-014 4.96837e-014
rhumerus -157.769 -45.0296 95.1477
rradius 14.9101
rwrist -160.067
rhand -14.9686 34.9464
rfingers 7.12502
rthumb 11.195 5.26504
lclavicle 9.89948e-014 4.96837e-014
lhumerus -125.131 -61.4599 193.078
lradius 32.3301
lwrist 36.3317
lhand -11.9457 -31.2461
lfingers 7.12502
lthumb 14.1093 -1.74513
rfemur -50.2722 -51.7058 33.779
rtibia 73.9904
rfoot -5.7804 -10.3011
rtoes -10.8789
lfemur -5.44229 6.00686 -13.6397
ltibia 24.1055
lfoot -12.7372 -8.91434
ltoes 14.9712
